<?xml version="1.0" encoding="UTF-8"?>
<svg version="1.1" xmlns="http://www.w3.org/2000/svg" width="512" height="512">
<path d="M0 0 C163.68 0 327.36 0 496 0 C496 163.68 496 327.36 496 496 C332.32 496 168.64 496 0 496 C0 332.32 0 168.64 0 0 Z M16 16 C16 52.96 16 89.92 16 128 C52.96 128 89.92 128 128 128 C128 91.04 128 54.08 128 16 C91.04 16 54.08 16 16 16 Z M144 16 C144 58.24 144 100.48 144 144 C101.76 144 59.52 144 16 144 C16 212.64 16 281.28 16 352 C58.24 352 100.48 352 144 352 C144 394.24 144 436.48 144 480 C212.64 480 281.28 480 352 480 C352 437.76 352 395.52 352 352 C394.24 352 436.48 352 480 352 C480 241.12 480 130.24 480 16 C369.12 16 258.24 16 144 16 Z M16 368 C16 404.96 16 441.92 16 480 C52.96 480 89.92 480 128 480 C128 443.04 128 406.08 128 368 C91.04 368 54.08 368 16 368 Z M368 368 C368 404.96 368 441.92 368 480 C404.96 480 441.92 480 480 480 C480 443.04 480 406.08 480 368 C443.04 368 406.08 368 368 368 Z " fill="#000000" transform="translate(8,8)"/>
<path d="M0 0 C0.74142628 -0.00453111 1.48285256 -0.00906223 2.2467463 -0.01373065 C4.7145499 -0.02632309 7.18213134 -0.02475764 9.64996338 -0.02310181 C11.42623171 -0.02909033 13.20249743 -0.03589662 14.97875977 -0.04345703 C19.79299386 -0.06109239 24.60715682 -0.06581141 29.4214201 -0.0670886 C32.43287326 -0.06851229 35.44430845 -0.07278603 38.45575714 -0.07808304 C48.97232711 -0.09657597 59.48884644 -0.10475467 70.00543213 -0.10317993 C79.79102891 -0.1019791 89.57640493 -0.12307185 99.36194587 -0.15466726 C107.77748641 -0.18086586 116.19295502 -0.19154571 124.60853601 -0.19026911 C129.62846408 -0.18976049 134.64819592 -0.19538857 139.66808319 -0.21662521 C144.39271869 -0.23606775 149.11697199 -0.2360911 153.8416214 -0.22159195 C155.56889915 -0.21951012 157.2962012 -0.22416717 159.0234375 -0.23631287 C172.59353544 -0.32550339 182.98680597 1.0496124 193.09234619 10.83383179 C201.56589848 20.07905608 204.00502011 28.93053836 203.71929932 41.4168396 C203.08568046 53.82841183 200.56966834 66.16869202 198.45678711 78.39901733 C197.94369061 81.39685154 197.44877793 84.39756962 196.9540062 87.39847374 C196.46897663 90.32886507 195.9741526 93.25753759 195.47632599 96.18577957 C195.24259754 97.56538745 195.01136085 98.94542031 194.78289032 100.32590866 C192.34130536 114.99261907 189.5043217 127.86356854 177.51031494 137.57992554 C168.5708629 143.5816134 160.63645241 144.78361109 150.00660515 144.44762802 C147.79542746 144.3830137 145.58623649 144.35354483 143.3742218 144.33410645 C137.09319282 144.27723087 130.81446627 144.19543555 124.53594971 144.00375366 C102.85890892 142.70272031 102.85890892 142.70272031 84.11578369 151.95883179 C82.32371809 153.74579095 80.62836841 155.57122791 78.97021484 157.48268127 C76.19636012 160.48779333 72.9527245 162.87266259 69.69781494 165.32992554 C68.62197445 166.17457062 67.54644254 167.01960893 66.47125244 167.86508179 C57.68727628 174.56749536 51.69636743 177.63805063 40.32281494 176.26742554 C34.70043262 174.00229309 31.00266364 170.69714995 28.09259033 165.3296814 C26.63021657 161.41192968 26.9097307 157.45407507 27.07281494 153.32992554 C27.09086182 152.45529663 27.10890869 151.58066772 27.12750244 150.67953491 C27.17423141 148.54168445 27.24596053 146.40440508 27.32281494 144.26742554 C26.32653076 144.30670166 26.32653076 144.30670166 25.31011963 144.34677124 C-1.68762928 145.27151203 -1.68762928 145.27151203 -13.61468506 135.45492554 C-27.58116417 121.81617969 -28.18790622 99.7615248 -31.25140381 81.41439819 C-31.69936999 78.7348998 -32.15724326 76.05740486 -32.62445068 73.38119507 C-40.06058244 30.75171842 -40.06058244 30.75171842 -32.67718506 18.26742554 C-24.32111717 6.81961253 -14.44309084 -0.06575903 0 0 Z M-15.67718506 24.26742554 C-20.97923898 30.62989024 -20.06554991 37.28292646 -19.67718506 45.26742554 C-19.11313628 50.4750683 -18.2884585 55.62842414 -17.41156006 60.79086304 C-17.1739105 62.23132457 -16.93688329 63.67188889 -16.70043945 65.11254883 C-16.20679622 68.10378458 -15.70498274 71.09349938 -15.19720459 74.08236694 C-14.55075465 77.89218004 -13.92648747 81.70525045 -13.30837631 85.5197506 C-12.82521181 88.48460869 -12.32974477 91.44731253 -11.83069611 94.40953445 C-11.59559334 95.81455576 -11.36435586 97.2202301 -11.13726044 98.62656784 C-8.98511816 112.24792553 -8.98511816 112.24792553 -0.98968506 123.14242554 C-0.38769287 123.69672241 0.21429932 124.25101929 0.83453369 124.82211304 C9.06981246 129.60555596 19.18848631 128.50369866 28.38531494 128.39242554 C29.83778272 128.38237386 31.29025724 128.37325188 32.74273682 128.36508179 C36.26957176 128.34324571 39.79614914 128.30883702 43.32281494 128.26742554 C43.31234131 129.09991821 43.30186768 129.93241089 43.29107666 130.79013062 C43.25697052 133.88191709 43.23190418 136.97360762 43.21295166 140.06552124 C43.19795999 142.06062172 43.17254763 144.055635 43.14703369 146.05062866 C43.14058838 147.30424194 43.13414307 148.55785522 43.12750244 149.84945679 C43.11702881 151.00679321 43.10655518 152.16412964 43.09576416 153.35653687 C43.09961631 156.46163727 43.09961631 156.46163727 45.32281494 159.26742554 C50.12720517 158.80392221 53.03415745 156.49289929 56.63531494 153.51742554 C57.53359009 152.79401978 57.53359009 152.79401978 58.45001221 152.05599976 C60.41553785 150.46930659 62.36970618 148.8693712 64.32281494 147.26742554 C66.43982653 145.54051939 68.55801973 143.81508021 70.67706299 142.09066772 C72.03007124 140.98771151 73.38064304 139.88175723 74.72833252 138.77230835 C75.35634766 138.25765015 75.98436279 137.74299194 76.63140869 137.21273804 C77.17595703 136.76430542 77.72050537 136.3158728 78.28155518 135.85385132 C78.9551709 135.33033081 79.62878662 134.8068103 80.32281494 134.26742554 C81.2440918 133.39481079 82.16536865 132.52219604 83.11456299 131.62313843 C88.75411084 127.65578344 95.73879578 128.58155102 102.34625244 128.63070679 C103.81685898 128.62265413 105.28745385 128.61212881 106.75802612 128.59925842 C110.61801142 128.57079715 114.47745898 128.57011653 118.33752441 128.57711792 C124.50688543 128.58445651 130.67607367 128.55282923 136.84529495 128.51466942 C138.98615452 128.50590172 141.12662864 128.51108685 143.26748657 128.51823425 C156.34212921 128.81743968 156.34212921 128.81743968 167.63531494 123.14242554 C168.25019775 122.60359741 168.86508057 122.06476929 169.49859619 121.50961304 C175.52230789 114.10573613 176.63951497 105.70716803 178.11968994 96.54086304 C178.35979204 95.10596474 178.60071342 93.67120332 178.84240723 92.23657227 C179.34470931 89.23726282 179.83784085 86.23663253 180.32427979 83.23471069 C180.94200809 79.42648302 181.58122346 75.62225334 182.22739792 71.81876183 C182.72830005 68.85663102 183.21802431 65.89273129 183.70456696 62.92821121 C183.9357493 61.52694929 184.17008978 60.12620394 184.40792084 58.72605515 C187.75272444 42.06156097 187.75272444 42.06156097 183.82281494 26.20492554 C179.04305664 20.15131655 173.89040183 17.30690431 166.32281494 16.26742554 C164.0009098 16.17714781 161.67677618 16.13693576 159.3531189 16.13371277 C158.67576718 16.13144721 157.99841547 16.12918166 157.30053794 16.12684745 C155.04378583 16.12054622 152.78709438 16.1213343 150.53033447 16.12216187 C148.90698164 16.11916797 147.28362951 16.11576491 145.66027832 16.11198425 C141.25940656 16.10316395 136.85855425 16.10080698 132.4576745 16.10016847 C129.70606313 16.0994569 126.95445668 16.09732057 124.20284653 16.09467125 C114.59748776 16.08542468 104.99214286 16.08133554 95.38677979 16.0821228 C86.44247433 16.08272357 77.49822918 16.07217025 68.55393898 16.05637914 C60.86628026 16.04329172 53.17864122 16.0379394 45.49097145 16.03857821 C40.90322172 16.03883283 36.31552562 16.03600181 31.72778702 16.02540016 C27.41200961 16.01569884 23.09633689 16.01565394 18.78055573 16.02291679 C17.20037813 16.02396007 15.62019394 16.02161504 14.04002762 16.01555634 C2.4980932 15.97418256 -6.90787647 15.94434283 -15.67718506 24.26742554 Z " fill="#000000" transform="translate(172.67718505859375,167.73257446289063)"/>
<path d="M0 0 C15.84 0 31.68 0 48 0 C48 15.84 48 31.68 48 48 C53.28 48 58.56 48 64 48 C64 53.28 64 58.56 64 64 C53.44 64 42.88 64 32 64 C32 74.56 32 85.12 32 96 C16.16 96 0.32 96 -16 96 C-16 101.28 -16 106.56 -16 112 C-21.28 112 -26.56 112 -32 112 C-32 101.44 -32 90.88 -32 80 C-42.56 80 -53.12 80 -64 80 C-64 69.44 -64 58.88 -64 48 C-74.56 48 -85.12 48 -96 48 C-96 42.72 -96 37.44 -96 32 C-80.16 32 -64.32 32 -48 32 C-48 42.56 -48 53.12 -48 64 C-37.44 64 -26.88 64 -16 64 C-16 69.28 -16 74.56 -16 80 C-5.44 80 5.12 80 16 80 C16 69.44 16 58.88 16 48 C21.28 48 26.56 48 32 48 C32 37.44 32 26.88 32 16 C21.44 16 10.88 16 0 16 C0 10.72 0 5.44 0 0 Z " fill="#000000" transform="translate(296,40)"/>
<path d="M0 0 C5.28 0 10.56 0 16 0 C16 15.84 16 31.68 16 48 C5.44 48 -5.12 48 -16 48 C-16 58.56 -16 69.12 -16 80 C-26.56 80 -37.12 80 -48 80 C-48 90.56 -48 101.12 -48 112 C-53.28 112 -58.56 112 -64 112 C-64 106.72 -64 101.44 -64 96 C-79.84 96 -95.68 96 -112 96 C-112 85.44 -112 74.88 -112 64 C-117.28 64 -122.56 64 -128 64 C-128 58.72 -128 53.44 -128 48 C-117.44 48 -106.88 48 -96 48 C-96 58.56 -96 69.12 -96 80 C-85.44 80 -74.88 80 -64 80 C-64 74.72 -64 69.44 -64 64 C-53.44 64 -42.88 64 -32 64 C-32 53.44 -32 42.88 -32 32 C-21.44 32 -10.88 32 0 32 C0 21.44 0 10.88 0 0 Z " fill="#000000" transform="translate(296,360)"/>
<path d="M0 0 C26.4 0 52.8 0 80 0 C80 26.4 80 52.8 80 80 C53.6 80 27.2 80 0 80 C0 53.6 0 27.2 0 0 Z M16 16 C16 31.84 16 47.68 16 64 C31.84 64 47.68 64 64 64 C64 48.16 64 32.32 64 16 C48.16 16 32.32 16 16 16 Z " fill="#000000" transform="translate(392,392)"/>
<path d="M0 0 C26.4 0 52.8 0 80 0 C80 26.4 80 52.8 80 80 C53.6 80 27.2 80 0 80 C0 53.6 0 27.2 0 0 Z M16 16 C16 31.84 16 47.68 16 64 C31.84 64 47.68 64 64 64 C64 48.16 64 32.32 64 16 C48.16 16 32.32 16 16 16 Z " fill="#000000" transform="translate(40,392)"/>
<path d="M0 0 C26.4 0 52.8 0 80 0 C80 26.4 80 52.8 80 80 C53.6 80 27.2 80 0 80 C0 53.6 0 27.2 0 0 Z M16 16 C16 31.84 16 47.68 16 64 C31.84 64 47.68 64 64 64 C64 48.16 64 32.32 64 16 C48.16 16 32.32 16 16 16 Z " fill="#000000" transform="translate(40,40)"/>
<path d="M0 0 C5.28 0 10.56 0 16 0 C16 10.56 16 21.12 16 32 C5.44 32 -5.12 32 -16 32 C-16 42.56 -16 53.12 -16 64 C-37.12 64 -58.24 64 -80 64 C-80 69.28 -80 74.56 -80 80 C-85.28 80 -90.56 80 -96 80 C-96 69.44 -96 58.88 -96 48 C-74.88 48 -53.76 48 -32 48 C-32 42.72 -32 37.44 -32 32 C-47.84 32 -63.68 32 -80 32 C-80 26.72 -80 21.44 -80 16 C-53.6 16 -27.2 16 0 16 C0 10.72 0 5.44 0 0 Z " fill="#000000" transform="translate(456,264)"/>
<path d="M0 0 C5.28 0 10.56 0 16 0 C16 10.56 16 21.12 16 32 C5.44 32 -5.12 32 -16 32 C-16 42.56 -16 53.12 -16 64 C-26.56 64 -37.12 64 -48 64 C-48 69.28 -48 74.56 -48 80 C-53.28 80 -58.56 80 -64 80 C-64 69.44 -64 58.88 -64 48 C-53.44 48 -42.88 48 -32 48 C-32 42.72 -32 37.44 -32 32 C-42.56 32 -53.12 32 -64 32 C-64 26.72 -64 21.44 -64 16 C-42.88 16 -21.76 16 0 16 C0 10.72 0 5.44 0 0 Z " fill="#000000" transform="translate(104,264)"/>
<path d="M0 0 C5.28 0 10.56 0 16 0 C16 10.56 16 21.12 16 32 C37.12 32 58.24 32 80 32 C80 47.84 80 63.68 80 80 C74.72 80 69.44 80 64 80 C64 69.44 64 58.88 64 48 C42.88 48 21.76 48 0 48 C0 32.16 0 16.32 0 0 Z " fill="#000000" transform="translate(392,168)"/>
<path d="M0 0 C5.28 0 10.56 0 16 0 C16 10.56 16 21.12 16 32 C37.12 32 58.24 32 80 32 C80 47.84 80 63.68 80 80 C74.72 80 69.44 80 64 80 C64 69.44 64 58.88 64 48 C42.88 48 21.76 48 0 48 C0 32.16 0 16.32 0 0 Z " fill="#000000" transform="translate(40,168)"/>
<path d="M0 0 C26.4 0 52.8 0 80 0 C80 10.56 80 21.12 80 32 C90.56 32 101.12 32 112 32 C112 37.28 112 42.56 112 48 C96.16 48 80.32 48 64 48 C64 37.44 64 26.88 64 16 C42.88 16 21.76 16 0 16 C0 10.72 0 5.44 0 0 Z " fill="#000000" transform="translate(360,40)"/>
<path d="M0 0 C15.84 0 31.68 0 48 0 C48 26.4 48 52.8 48 80 C42.72 80 37.44 80 32 80 C32 58.88 32 37.76 32 16 C21.44 16 10.88 16 0 16 C0 10.72 0 5.44 0 0 Z " fill="#000000" transform="translate(296,328)"/>
<path d="M0 0 C5.82485779 3.51996782 10.54466582 8.98962934 12.5625 15.5 C13.36764105 23.33608208 13.68710392 31.11922577 8.5625 37.5 C3.75801361 42.54521222 -0.59927055 46.10562995 -7.70703125 46.8359375 C-16.22326573 46.92983204 -22.11345494 46.6177288 -28.40234375 40.62890625 C-34.7841668 33.72505269 -35.91792252 28.29832071 -35.7421875 18.9453125 C-35.04689797 11.08319245 -31.38995981 6.95041296 -25.53515625 1.9453125 C-18.47077988 -2.92213491 -7.84396301 -3.47595223 0 0 Z M-16.8125 17.125 C-18.92456506 20.21186432 -19.04945145 21.8282913 -18.4375 25.5 C-16.9375 28 -16.9375 28 -14.4375 29.5 C-10.7657913 30.11195145 -9.14936432 29.98706506 -6.0625 27.875 C-3.95043494 24.78813568 -3.82554855 23.1717087 -4.4375 19.5 C-5.9375 17 -5.9375 17 -8.4375 15.5 C-12.1092087 14.88804855 -13.72563568 15.01293494 -16.8125 17.125 Z " fill="#000000" transform="translate(331.4375,217.5)"/>
<path d="M0 0 C5.82485779 3.51996782 10.54466582 8.98962934 12.5625 15.5 C13.36764105 23.33608208 13.68710392 31.11922577 8.5625 37.5 C3.75801361 42.54521222 -0.59927055 46.10562995 -7.70703125 46.8359375 C-16.22326573 46.92983204 -22.11345494 46.6177288 -28.40234375 40.62890625 C-34.7841668 33.72505269 -35.91792252 28.29832071 -35.7421875 18.9453125 C-35.04689797 11.08319245 -31.38995981 6.95041296 -25.53515625 1.9453125 C-18.47077988 -2.92213491 -7.84396301 -3.47595223 0 0 Z M-16.8125 17.125 C-18.92456506 20.21186432 -19.04945145 21.8282913 -18.4375 25.5 C-16.9375 28 -16.9375 28 -14.4375 29.5 C-10.7657913 30.11195145 -9.14936432 29.98706506 -6.0625 27.875 C-3.95043494 24.78813568 -3.82554855 23.1717087 -4.4375 19.5 C-5.9375 17 -5.9375 17 -8.4375 15.5 C-12.1092087 14.88804855 -13.72563568 15.01293494 -16.8125 17.125 Z " fill="#000000" transform="translate(267.4375,217.5)"/>
<path d="M0 0 C5.82485779 3.51996782 10.54466582 8.98962934 12.5625 15.5 C13.36764105 23.33608208 13.68710392 31.11922577 8.5625 37.5 C3.75801361 42.54521222 -0.59927055 46.10562995 -7.70703125 46.8359375 C-16.22326573 46.92983204 -22.11345494 46.6177288 -28.40234375 40.62890625 C-34.7841668 33.72505269 -35.91792252 28.29832071 -35.7421875 18.9453125 C-35.04689797 11.08319245 -31.38995981 6.95041296 -25.53515625 1.9453125 C-18.47077988 -2.92213491 -7.84396301 -3.47595223 0 0 Z M-16.8125 17.125 C-18.92456506 20.21186432 -19.04945145 21.8282913 -18.4375 25.5 C-16.9375 28 -16.9375 28 -14.4375 29.5 C-10.7657913 30.11195145 -9.14936432 29.98706506 -6.0625 27.875 C-3.95043494 24.78813568 -3.82554855 23.1717087 -4.4375 19.5 C-5.9375 17 -5.9375 17 -8.4375 15.5 C-12.1092087 14.88804855 -13.72563568 15.01293494 -16.8125 17.125 Z " fill="#000000" transform="translate(203.4375,217.5)"/>
<path d="M0 0 C5.28 0 10.56 0 16 0 C16 15.84 16 31.68 16 48 C-5.12 48 -26.24 48 -48 48 C-48 42.72 -48 37.44 -48 32 C-32.16 32 -16.32 32 0 32 C0 21.44 0 10.88 0 0 Z " fill="#000000" transform="translate(456,104)"/>
<path d="M0 0 C15.84 0 31.68 0 48 0 C48 5.28 48 10.56 48 16 C37.44 16 26.88 16 16 16 C16 26.56 16 37.12 16 48 C10.72 48 5.44 48 0 48 C0 32.16 0 16.32 0 0 Z " fill="#000000" transform="translate(296,424)"/>
<path d="M0 0 C15.84 0 31.68 0 48 0 C48 5.28 48 10.56 48 16 C37.44 16 26.88 16 16 16 C16 26.56 16 37.12 16 48 C10.72 48 5.44 48 0 48 C0 32.16 0 16.32 0 0 Z " fill="#000000" transform="translate(232,360)"/>
<path d="M0 0 C15.84 0 31.68 0 48 0 C48 15.84 48 31.68 48 48 C42.72 48 37.44 48 32 48 C32 37.44 32 26.88 32 16 C21.44 16 10.88 16 0 16 C0 10.72 0 5.44 0 0 Z " fill="#000000" transform="translate(168,104)"/>
<path d="M0 0 C15.84 0 31.68 0 48 0 C48 15.84 48 31.68 48 48 C42.72 48 37.44 48 32 48 C32 37.44 32 26.88 32 16 C21.44 16 10.88 16 0 16 C0 10.72 0 5.44 0 0 Z " fill="#000000" transform="translate(232,40)"/>
<path d="M0 0 C15.84 0 31.68 0 48 0 C48 5.28 48 10.56 48 16 C37.44 16 26.88 16 16 16 C16 26.56 16 37.12 16 48 C10.72 48 5.44 48 0 48 C0 32.16 0 16.32 0 0 Z " fill="#000000" transform="translate(168,40)"/>
<path d="M0 0 C15.84 0 31.68 0 48 0 C48 5.28 48 10.56 48 16 C37.44 16 26.88 16 16 16 C16 21.28 16 26.56 16 32 C10.72 32 5.44 32 0 32 C0 21.44 0 10.88 0 0 Z " fill="#000000" transform="translate(168,360)"/>
<path d="M0 0 C5.28 0 10.56 0 16 0 C16 5.28 16 10.56 16 16 C26.56 16 37.12 16 48 16 C48 21.28 48 26.56 48 32 C32.16 32 16.32 32 0 32 C0 21.44 0 10.88 0 0 Z " fill="#000000" transform="translate(104,312)"/>
<path d="M0 0 C15.84 0 31.68 0 48 0 C48 5.28 48 10.56 48 16 C37.44 16 26.88 16 16 16 C16 21.28 16 26.56 16 32 C10.72 32 5.44 32 0 32 C0 21.44 0 10.88 0 0 Z " fill="#000000" transform="translate(392,232)"/>
<path d="M0 0 C15.84 0 31.68 0 48 0 C48 5.28 48 10.56 48 16 C37.44 16 26.88 16 16 16 C16 21.28 16 26.56 16 32 C10.72 32 5.44 32 0 32 C0 21.44 0 10.88 0 0 Z " fill="#000000" transform="translate(40,232)"/>
<path d="M0 0 C21.12 0 42.24 0 64 0 C64 5.28 64 10.56 64 16 C42.88 16 21.76 16 0 16 C0 10.72 0 5.44 0 0 Z " fill="#000000" transform="translate(72,168)"/>
<path d="M0 0 C15.84 0 31.68 0 48 0 C48 10.56 48 21.12 48 32 C42.72 32 37.44 32 32 32 C32 26.72 32 21.44 32 16 C21.44 16 10.88 16 0 16 C0 10.72 0 5.44 0 0 Z " fill="#000000" transform="translate(344,120)"/>
<path d="M0 0 C15.84 0 31.68 0 48 0 C48 5.28 48 10.56 48 16 C32.16 16 16.32 16 0 16 C0 10.72 0 5.44 0 0 Z " fill="#000000" transform="translate(424,168)"/>
<path d="M0 0 C10.56 0 21.12 0 32 0 C32 5.28 32 10.56 32 16 C26.72 16 21.44 16 16 16 C16 21.28 16 26.56 16 32 C10.72 32 5.44 32 0 32 C0 21.44 0 10.88 0 0 Z " fill="#000000" transform="translate(376,72)"/>
<path d="M0 0 C5.28 0 10.56 0 16 0 C16 10.56 16 21.12 16 32 C10.72 32 5.44 32 0 32 C0 21.44 0 10.88 0 0 Z " fill="#000000" transform="translate(456,312)"/>
<path d="M0 0 C10.56 0 21.12 0 32 0 C32 5.28 32 10.56 32 16 C21.44 16 10.88 16 0 16 C0 10.72 0 5.44 0 0 Z " fill="#000000" transform="translate(408,104)"/>
<path d="M0 0 C5.28 0 10.56 0 16 0 C16 5.28 16 10.56 16 16 C10.72 16 5.44 16 0 16 C0 10.72 0 5.44 0 0 Z " fill="#000000" transform="translate(328,456)"/>
<path d="M0 0 C5.28 0 10.56 0 16 0 C16 5.28 16 10.56 16 16 C10.72 16 5.44 16 0 16 C0 10.72 0 5.44 0 0 Z " fill="#000000" transform="translate(264,456)"/>
<path d="M0 0 C5.28 0 10.56 0 16 0 C16 5.28 16 10.56 16 16 C10.72 16 5.44 16 0 16 C0 10.72 0 5.44 0 0 Z " fill="#000000" transform="translate(168,328)"/>
<path d="M0 0 C5.28 0 10.56 0 16 0 C16 5.28 16 10.56 16 16 C10.72 16 5.44 16 0 16 C0 10.72 0 5.44 0 0 Z " fill="#000000" transform="translate(232,136)"/>
<path d="M0 0 C5.28 0 10.56 0 16 0 C16 5.28 16 10.56 16 16 C10.72 16 5.44 16 0 16 C0 10.72 0 5.44 0 0 Z " fill="#000000" transform="translate(168,136)"/>
<path d="M0 0 C5.28 0 10.56 0 16 0 C16 5.28 16 10.56 16 16 C10.72 16 5.44 16 0 16 C0 10.72 0 5.44 0 0 Z " fill="#000000" transform="translate(456,40)"/>
</svg>
