<?xml version="1.0" encoding="UTF-8"?>
<svg version="1.1" xmlns="http://www.w3.org/2000/svg" width="512" height="512">
<path d="M0 0 C6.71381001 3.79107884 10.66374891 10.1110343 14.9375 16.3125 C15.94967531 17.74669085 16.96272398 19.18026565 17.9765625 20.61328125 C24.67795313 30.17001908 27.93350469 36.28930058 26.9375 48.3125 C25.23068233 54.77989948 21.56421545 57.97815011 15.9375 61.3125 C15.2775 61.3125 14.6175 61.3125 13.9375 61.3125 C13.94638245 62.20563904 13.95526489 63.09877808 13.9644165 64.01898193 C14.04455934 72.43531743 14.10546282 80.85152481 14.14474869 89.26815414 C14.16562503 93.59527614 14.19394312 97.92208288 14.23925781 102.24902344 C14.28271452 106.42467599 14.30663675 110.6000253 14.31700897 114.77588654 C14.32440072 116.3691307 14.33883521 117.96235824 14.36042023 119.55547333 C14.38945327 121.78702169 14.39345626 124.01731664 14.39160156 126.24902344 C14.40048401 127.51921326 14.40936646 128.78940308 14.41851807 130.0980835 C13.85148841 133.88727486 12.95541798 135.03295279 9.9375 137.3125 C7.31640625 138.18359375 7.31640625 138.18359375 4.5 138.75 C-0.54816913 139.9833978 -2.94802424 141.15986566 -6.0625 145.3125 C-7.63440666 150.02821999 -7.56505135 153.86068499 -5.9375 158.5625 C-3.61807782 161.96431919 -1.94015844 162.97023362 1.9375 164.3125 C6.18370247 164.84327531 8.34643024 164.60803488 12.1875 162.6875 C16.22746192 159.19844198 17.52192298 155.55923106 19.1875 150.5625 C20.9375 147.3125 20.9375 147.3125 24.3125 145.75 C28.12410401 145.28997883 29.69645035 145.33185855 32.9375 147.3125 C34.87457445 149.42944565 35.86906529 150.69337972 36.1875 153.57421875 C35.2486191 162.68429753 31.58986905 169.56145559 24.87890625 175.80859375 C17.97643673 181.15557718 9.99636233 182.83449429 1.3984375 182.09375 C-6.55625493 180.8131184 -13.38076634 177.86428465 -18.4375 171.4375 C-24.26306614 162.86859246 -26.18941172 154.08942923 -24.70703125 143.859375 C-22.80275693 135.73106312 -17.71220302 129.38067138 -10.765625 124.796875 C-5.97183099 122.3125 -5.97183099 122.3125 -3.0625 122.3125 C-3.3925 106.1425 -3.7225 89.9725 -4.0625 73.3125 C-7.754375 75.601875 -11.44625 77.89125 -15.25 80.25 C-24.90647079 86.21253347 -34.6310604 92.03830149 -44.4375 97.75 C-55.40559417 104.13936355 -66.29305775 110.64813092 -77.12695312 117.26245117 C-82.41883108 120.49294332 -87.71575984 123.71214087 -93.05078125 126.87109375 C-93.96722412 127.41467529 -94.88366699 127.95825684 -95.82788086 128.51831055 C-97.49924254 129.50730509 -99.17302257 130.49223098 -100.84985352 131.47192383 C-106.82943875 135.01501904 -112.01654332 138.79840743 -116.5 144.1875 C-118.76296902 146.84338013 -121.07025156 149.37043106 -123.5625 151.8125 C-126.01698488 154.22315479 -128.3169206 156.70602391 -130.5625 159.3125 C-133.34317169 162.54006535 -136.2671304 165.54321167 -139.30859375 168.5234375 C-141.74244316 171.00607231 -143.96865317 173.64857438 -146.19140625 176.3203125 C-150.7210651 181.14312255 -154.87344882 183.95972918 -161.05834961 186.33935547 C-162.06692268 186.73323456 -162.06692268 186.73323456 -163.09587097 187.1350708 C-164.54419795 187.69925021 -165.99452778 188.25831025 -167.44663811 188.81267929 C-169.75155055 189.69371846 -172.04986498 190.59028904 -174.34706116 191.49124146 C-180.8751129 194.04831412 -187.41389957 196.57734996 -193.95678711 199.09619141 C-197.97044657 200.64259069 -201.97673136 202.20696114 -205.97924995 203.78195572 C-207.49742041 204.37501675 -209.01834269 204.96108645 -210.54206657 205.53973007 C-218.60561682 208.602471 -225.60055646 211.30439853 -231.0625 218.3125 C-232.12123856 219.52413046 -233.18342378 220.73276316 -234.25 221.9375 C-235.11431641 222.93910156 -235.11431641 222.93910156 -235.99609375 223.9609375 C-238.55464064 226.87255419 -241.17895331 229.71878768 -243.8125 232.5625 C-244.32611084 233.11728027 -244.83972168 233.67206055 -245.36889648 234.24365234 C-246.41638884 235.37478105 -247.46399666 236.50580284 -248.51171875 237.63671875 C-250.9514095 240.27305963 -253.38312747 242.91665294 -255.8125 245.5625 C-256.70582031 246.53316406 -257.59914063 247.50382813 -258.51953125 248.50390625 C-261.52772623 251.82632129 -264.43758925 255.22648387 -267.30859375 258.66796875 C-269.26717374 260.50441012 -270.4887809 260.77169657 -273.0625 261.3125 C-272.22012424 262.54562221 -271.3776555 263.77868091 -270.53515625 265.01171875 C-269.72594727 266.19918701 -269.72594727 266.19918701 -268.90039062 267.41064453 C-267.7089385 269.14834272 -266.50826641 270.87975232 -265.29882812 272.60498047 C-262.61143294 276.45715309 -260.01536129 280.21651851 -257.93359375 284.43359375 C-255.91031372 288.22249185 -254.46016426 290.65977817 -251.0625 293.3125 C-245.70182361 294.64041485 -240.30857735 294.46223258 -234.828125 294.2578125 C-230.74648603 294.15238852 -228.24136109 294.5083827 -225.0625 297.3125 C-224.17333856 299.97998431 -223.91952013 301.59611989 -223.86962891 304.33740234 C-223.85356598 305.14188812 -223.83750305 305.9463739 -223.82095337 306.77523804 C-223.77635258 310.44389837 -223.73545739 314.11238195 -223.71240234 317.78125 C-223.69583041 319.71529157 -223.66852407 321.64927159 -223.63037109 323.58300781 C-223.57557904 326.37597311 -223.55372758 329.16750703 -223.5390625 331.9609375 C-223.51639313 332.82254486 -223.49372375 333.68415222 -223.47036743 334.5718689 C-223.48531169 338.82327257 -223.697953 340.78720126 -226.18188477 344.36645508 C-229.66239748 346.71777018 -231.5050115 346.8960043 -235.67578125 346.80078125 C-236.92294922 346.78466797 -238.17011719 346.76855469 -239.45507812 346.75195312 C-240.74865234 346.71005859 -242.04222656 346.66816406 -243.375 346.625 C-244.68791016 346.60244141 -246.00082031 346.57988281 -247.35351562 346.55664062 C-250.59033181 346.49778942 -253.82656106 346.40811212 -257.0625 346.3125 C-257.0625 350.9325 -257.0625 355.5525 -257.0625 360.3125 C-236.6025 360.3125 -216.1425 360.3125 -195.0625 360.3125 C-195.0625 350.7425 -195.0625 341.1725 -195.0625 331.3125 C-191.77484136 320.35363787 -189.66973379 315.66858195 -180.63671875 309.57421875 C-172.69061211 305.67954129 -164.59815935 306.04804631 -155.9375 306.1171875 C-154.58130096 306.1209244 -153.2250992 306.12376817 -151.86889648 306.12576294 C-148.32448685 306.1333462 -144.78024492 306.15294805 -141.23590088 306.1751709 C-137.60911323 306.19574466 -133.98229811 306.20478915 -130.35546875 306.21484375 C-123.2577445 306.23619979 -116.16013328 306.27027042 -109.0625 306.3125 C-109.05710177 301.97386524 -109.09157209 297.6377528 -109.16015625 293.29980469 C-109.17812173 291.82984332 -109.18592071 290.35971587 -109.18261719 288.88964844 C-109.16902036 278.92317523 -110.01123503 270.71560413 -116.0625 262.3125 C-124.46917906 254.85367622 -133.01666361 254.0132891 -143.80664062 253.74609375 C-152.16051781 253.45781292 -152.16051781 253.45781292 -156.0625 251.3125 C-158.42835344 248.15802874 -158.46336569 245.16081063 -158.0625 241.3125 C-156.28265595 238.1765843 -155.53941793 237.47147264 -152.0625 236.3125 C-135.58695382 235.08893069 -120.44531563 235.70919223 -107.0625 246.3125 C-98.08527127 254.56971209 -92.54245239 264.98919666 -91.83544922 277.25 C-91.83575913 278.60420796 -91.84664909 279.95844776 -91.8671875 281.3125 C-91.87143234 282.39422485 -91.87143234 282.39422485 -91.87576294 283.49780273 C-91.88683304 285.76954747 -91.91191105 288.04087727 -91.9375 290.3125 C-91.9475469 291.86587967 -91.95666973 293.4192656 -91.96484375 294.97265625 C-91.98501574 298.75288718 -92.02418652 302.53223688 -92.0625 306.3125 C-85.4625 306.3125 -78.8625 306.3125 -72.0625 306.3125 C-72.08344727 303.52143799 -72.10439453 300.73037598 -72.12597656 297.85473633 C-72.19224544 288.63471208 -72.23643501 279.41467733 -72.26974869 270.19447803 C-72.29062637 264.60405191 -72.31894772 259.01386972 -72.36425781 253.42358398 C-72.4077085 248.0289692 -72.43163575 242.63458911 -72.44200897 237.23981285 C-72.44940169 235.18129468 -72.46383788 233.12278941 -72.48542023 231.06437111 C-72.51444355 228.18171015 -72.51845641 225.30001981 -72.51660156 222.41723633 C-72.53098267 221.56559402 -72.54536377 220.71395172 -72.56018066 219.83650208 C-72.53408928 216.09081116 -72.25251528 213.70802994 -70.61087036 210.29083252 C-66.82081613 207.34856493 -63.5191416 207.5591076 -58.83447266 207.55444336 C-57.90052673 207.53443771 -56.96658081 207.51443207 -56.0043335 207.49382019 C-52.91146365 207.43606405 -49.81992074 207.4166128 -46.7265625 207.40234375 C-44.56862962 207.38118795 -42.41070113 207.35957986 -40.2527771 207.33753967 C-35.72163812 207.29854147 -31.1909645 207.28131717 -26.65966797 207.27612305 C-20.88399872 207.26550154 -15.11246807 207.17676199 -9.33793068 207.06786251 C-4.8747556 206.99681716 -0.41255417 206.98075201 4.05113602 206.97928047 C6.17771995 206.96975284 8.30431746 206.94070182 10.43033981 206.89091301 C21.22536084 206.65896323 29.72088361 206.58300551 38.02978516 214.13500977 C39.59076164 215.67679244 41.09477674 217.24857617 42.57146072 218.87104988 C44.57332174 220.98342165 46.82211236 222.7288201 49.125 224.5 C54.44711042 228.70898928 59.6919625 233.00865787 64.9375 237.3125 C66.77060162 238.81278317 68.60393427 240.31278408 70.4375 241.8125 C81.4375 250.8125 81.4375 250.8125 84.17578125 253.0546875 C86.04586888 254.58355688 87.91833916 256.10951568 89.79296875 257.6328125 C90.72753906 258.39335937 91.66210938 259.15390625 92.625 259.9375 C93.45386719 260.61039062 94.28273438 261.28328125 95.13671875 261.9765625 C96.06097656 262.74742187 96.98523438 263.51828125 97.9375 264.3125 C98.59380244 264.69717092 99.25010489 265.08184183 99.92629528 265.47816944 C103.81664315 268.08731133 105.6745573 270.09335564 106.67876625 274.74941063 C107.06680777 279.22881913 106.98529912 283.70859891 106.92504883 288.19995117 C106.93098195 289.92847651 106.9403641 291.65699292 106.95292664 293.38548279 C106.97653794 298.06755101 106.95014544 302.74811737 106.91330934 307.43005157 C106.88184681 312.33156377 106.89187507 317.23301083 106.89616394 322.13459778 C106.89699258 330.36203662 106.86619019 338.58888745 106.81567383 346.81616211 C106.75755753 356.33050161 106.74533079 365.84403863 106.7585333 375.35852832 C106.77052686 384.51297079 106.75414421 393.66713497 106.72339439 402.82152748 C106.71056956 406.71741455 106.7069919 410.61314886 106.71067238 414.50905418 C106.71343227 419.09351949 106.69114653 423.67719966 106.64938545 428.26146889 C106.63796901 429.94488055 106.63505322 431.62837418 106.64119339 433.31181335 C106.64811909 435.60771635 106.62434797 437.90129837 106.59260559 440.19694519 C106.58682401 441.48205081 106.58104242 442.76715643 106.57508564 444.09120464 C105.9375 447.3125 105.9375 447.3125 103.59841442 449.72884083 C100.21724938 451.74116148 98.02372591 451.77216918 94.10546875 451.703125 C92.16704102 451.68378906 92.16704102 451.68378906 90.18945312 451.6640625 C88.83462454 451.63064634 87.47980683 451.59678662 86.125 451.5625 C84.75067683 451.54242034 83.37632561 451.52417213 82.00195312 451.5078125 C78.64642144 451.46071732 75.29231873 451.39495135 71.9375 451.3125 C71.82865479 451.95316406 71.71980957 452.59382813 71.60766602 453.25390625 C69.24315431 466.19903512 63.36009345 476.17749019 53.9375 485.3125 C53.09251953 486.17101562 53.09251953 486.17101562 52.23046875 487.046875 C41.74779313 496.94292887 27.17528942 500.85502282 13.08007812 500.73217773 C-1.21262131 500.20351105 -14.8393846 494.81338904 -25.4140625 485.08984375 C-34.80767988 474.9616544 -39.37300416 464.75997918 -42.0625 451.3125 C-56.2525 451.3125 -70.4425 451.3125 -85.0625 451.3125 C-84.7325 452.9625 -84.4025 454.6125 -84.0625 456.3125 C-84.33203125 458.69921875 -84.33203125 458.69921875 -84.875 461 C-85.04644531 461.76699219 -85.21789062 462.53398437 -85.39453125 463.32421875 C-86.0625 465.3125 -86.0625 465.3125 -88.0625 467.3125 C-90.87776193 467.51641973 -93.59505765 467.59566522 -96.41186523 467.5871582 C-97.27540619 467.59226913 -98.13894714 467.59738007 -99.02865601 467.60264587 C-101.89287176 467.61658459 -104.75684804 467.61558188 -107.62109375 467.61328125 C-109.60645132 467.61716588 -111.59180805 467.62150006 -113.5771637 467.62626648 C-117.74263195 467.63373794 -121.90801547 467.63343076 -126.07348633 467.62817383 C-131.41820983 467.62237849 -136.76258688 467.63930732 -142.10725307 467.6625185 C-146.20870501 467.67723244 -150.31007306 467.67813073 -154.41154671 467.67500877 C-156.38237253 467.67552318 -158.3532029 467.68078322 -160.32400322 467.69082069 C-163.07747951 467.7031223 -165.83027528 467.6964313 -168.58374023 467.68481445 C-169.40202805 467.69245819 -170.22031586 467.70010193 -171.06340027 467.70797729 C-176.61178855 467.65609291 -176.61178855 467.65609291 -178.73288059 466.03911114 C-182.1074543 461.65697253 -181.0625 456.70534107 -181.0625 451.3125 C-194.9225 451.3125 -208.7825 451.3125 -223.0625 451.3125 C-223.7225 454.9425 -224.3825 458.5725 -225.0625 462.3125 C-230.32895129 476.68622215 -240.60176146 487.9446617 -254.18359375 494.9140625 C-257.112585 496.19013257 -260.03274156 497.30116408 -263.0625 498.3125 C-264.14724609 498.67988281 -264.14724609 498.67988281 -265.25390625 499.0546875 C-280.03408844 503.14938693 -295.92264527 500.09869698 -309.18359375 493.02734375 C-322.10463914 485.33081875 -331.78803141 473.89149109 -336.0625 459.3125 C-336.45896404 456.65187944 -336.75043038 453.98493831 -337.0625 451.3125 C-337.64386215 451.31916183 -338.2252243 451.32582367 -338.82420349 451.33268738 C-344.90805497 451.39936918 -350.9918016 451.44443617 -357.07592773 451.47729492 C-359.34257224 451.49232508 -361.60918794 451.51275482 -363.87573242 451.53881836 C-367.14509213 451.57545588 -370.41406527 451.5922846 -373.68359375 451.60546875 C-374.68708359 451.62095261 -375.69057343 451.63643646 -376.72447205 451.65238953 C-385.35761402 451.65442657 -393.07694071 450.26586553 -399.50538635 444.13565063 C-406.55536076 435.88116944 -406.79582533 426.95837448 -406.69140625 416.6015625 C-406.69223655 415.10085885 -406.694702 413.6001553 -406.69871521 412.09945679 C-406.70155617 408.97438772 -406.68703049 405.85004223 -406.65942383 402.72509766 C-406.62516442 398.72339413 -406.63143347 394.72296767 -406.6500864 390.72120094 C-406.66065376 387.63102577 -406.65172422 384.54114774 -406.63670158 381.45100021 C-406.63152922 379.97503924 -406.63199011 378.49904714 -406.63824654 377.02309036 C-406.64370318 374.96474514 -406.62332146 372.90823366 -406.59594727 370.85009766 C-406.58974869 369.68112946 -406.58355011 368.51216125 -406.5771637 367.30776978 C-406.0625 364.3125 -406.0625 364.3125 -404.47636414 361.93228149 C-401.16255846 359.7086099 -398.8839132 359.83097301 -394.90722656 359.85839844 C-394.19463181 359.85781433 -393.48203705 359.85723022 -392.74784851 359.85662842 C-390.3991069 359.85940891 -388.0516441 359.89049677 -385.703125 359.921875 C-384.07217095 359.92933757 -382.44120793 359.93503043 -380.8102417 359.93902588 C-376.52251323 359.95428108 -372.23532881 359.99356146 -367.94781494 360.0378418 C-363.57075357 360.07879723 -359.19360409 360.09703745 -354.81640625 360.1171875 C-346.23149363 360.16005637 -337.64712722 360.23040484 -329.0625 360.3125 C-329.0625 355.6925 -329.0625 351.0725 -329.0625 346.3125 C-331.10953125 346.35890625 -333.1565625 346.4053125 -335.265625 346.453125 C-337.25470027 346.48094423 -339.24378043 346.50861952 -341.23291016 346.53222656 C-342.6122668 346.55230642 -343.99153869 346.57957666 -345.37060547 346.61425781 C-347.35606979 346.66292817 -349.34216254 346.68336418 -351.328125 346.703125 C-352.52211914 346.72407227 -353.71611328 346.74501953 -354.94628906 346.76660156 C-358.67422735 346.22335766 -359.77744666 345.23644393 -362.0625 342.3125 C-363.67983228 339.07783544 -363.22555703 335.53440019 -363.23046875 331.98046875 C-363.23546135 330.73732658 -363.23546135 330.73732658 -363.24055481 329.46907043 C-363.24562271 327.71302852 -363.24796318 325.95697696 -363.24780273 324.20092773 C-363.24998279 321.52115857 -363.26812193 318.84180531 -363.28710938 316.16210938 C-363.29004465 314.45573057 -363.29202855 312.74934982 -363.29296875 311.04296875 C-363.30015427 310.24384567 -363.30733978 309.4447226 -363.31474304 308.62138367 C-363.29406984 303.55523231 -362.95107634 299.51106993 -359.515625 295.51171875 C-355.69446102 293.64372935 -351.99735756 293.9984689 -347.8125 294.125 C-344.925 294.186875 -342.0375 294.24875 -339.0625 294.3125 C-339.0625 283.4225 -339.0625 272.5325 -339.0625 261.3125 C-346.45199554 261.43091437 -346.45199554 261.43091437 -353.84082031 261.58276367 C-355.22672363 261.59400269 -355.22672363 261.59400269 -356.640625 261.60546875 C-357.58325195 261.6211792 -358.52587891 261.63688965 -359.49707031 261.65307617 C-362.54475608 261.24847761 -363.86830313 260.43739009 -366.0625 258.3125 C-367.34457675 254.46626976 -367.24456972 250.81452028 -367.265625 246.8046875 C-367.27132507 245.96463165 -367.27702515 245.12457581 -367.28289795 244.25906372 C-367.29234498 242.47871152 -367.29888075 240.69834185 -367.30273438 238.91796875 C-367.31238938 236.21843052 -367.34339391 233.51967043 -367.375 230.8203125 C-367.38153564 229.08594199 -367.3867839 227.35156607 -367.390625 225.6171875 C-367.4029718 224.81997284 -367.4153186 224.02275818 -367.42803955 223.2013855 C-367.391143 213.72924869 -364.55631142 206.6583007 -357.9921875 199.83203125 C-352.72306392 195.30058498 -346.77590577 192.07086215 -340.6953125 188.75195312 C-336.71583359 186.57622912 -332.76453123 184.35066992 -328.80883789 182.13208008 C-326.63480123 180.91352738 -324.45949468 179.69723767 -322.28295898 178.4831543 C-315.68709669 174.801917 -309.14048339 171.05378979 -302.64428711 167.19995117 C-296.33304099 163.45858977 -289.9820403 159.78793513 -283.625 156.125 C-282.51922607 155.48771973 -281.41345215 154.85043945 -280.27416992 154.19384766 C-276.8705747 152.2328862 -273.46658111 150.27261785 -270.0625 148.3125 C-257.37902382 141.00780212 -244.70000821 133.69651657 -232.0625 126.3125 C-218.33194812 118.28982489 -204.55172034 110.35391741 -190.77148438 102.41699219 C-179.18568234 95.74293688 -167.60696647 89.05785916 -156.0625 82.3125 C-142.33194812 74.28982489 -128.55172034 66.35391741 -114.77148438 58.41699219 C-107.19851268 54.05454652 -99.62862489 49.6868103 -92.0625 45.3125 C-91.00160156 44.69955078 -89.94070313 44.08660156 -88.84765625 43.45507812 C-72.20350002 33.82917382 -55.83823957 24.02878174 -40.0390625 13.06640625 C-36.00303526 10.26632507 -31.94869844 7.49497946 -27.875 4.75 C-27.26325928 4.33234375 -26.65151855 3.9146875 -26.02124023 3.484375 C-17.74598719 -2.07013631 -9.50592383 -3.92831552 0 0 Z M-20.11328125 19.6875 C-21.10149117 20.35338135 -21.10149117 20.35338135 -22.10966492 21.03271484 C-24.20559867 22.44861518 -26.2902438 23.8802064 -28.375 25.3125 C-29.79681029 26.27709753 -31.21932898 27.24065175 -32.64257812 28.203125 C-36.1242118 30.56090333 -39.59581027 32.93280975 -43.0625 35.3125 C-41.78234177 38.86845195 -40.2998893 41.57774879 -37.9453125 44.52734375 C-37.33816406 45.29626953 -36.73101562 46.06519531 -36.10546875 46.85742188 C-35.47253906 47.64697266 -34.83960938 48.43652344 -34.1875 49.25 C-30.27986291 54.16073156 -26.44317468 59.02063989 -23.0625 64.3125 C-15.45756289 60.41207558 -8.19961797 55.99840193 -0.9375 51.5 C0.48598755 50.6188855 0.48598755 50.6188855 1.93823242 49.7199707 C6.15674766 47.30514314 6.15674766 47.30514314 9.9375 44.3125 C9.8411478 37.53280869 6.79762177 33.81606443 2.625 28.6875 C2.04298828 27.95015625 1.46097656 27.2128125 0.86132812 26.453125 C-0.26527489 25.02924169 -1.40178935 23.61312956 -2.54931641 22.20605469 C-3.81972813 20.61629777 -5.00502411 18.95904237 -6.16796875 17.2890625 C-7.86887444 15.12798583 -7.86887444 15.12798583 -10.24023438 14.91552734 C-14.1856103 15.47047382 -16.9112764 17.46544496 -20.11328125 19.6875 Z M-62.34765625 47.6640625 C-63.25813721 48.1782373 -64.16861816 48.69241211 -65.10668945 49.22216797 C-66.60075317 50.07125732 -66.60075317 50.07125732 -68.125 50.9375 C-69.15778076 51.52289551 -70.19056152 52.10829102 -71.25463867 52.71142578 C-79.49498725 57.39439052 -87.68977328 62.1529567 -95.86987305 66.94018555 C-103.21081865 71.23624332 -110.56833732 75.50253102 -117.9375 79.75 C-119.01604248 80.37173096 -120.09458496 80.99346191 -121.20581055 81.6340332 C-125.58795836 84.15942169 -129.97075037 86.68369109 -134.35351562 89.20800781 C-145.93931766 95.88206312 -157.51803353 102.56714084 -169.0625 109.3125 C-180.60979516 116.05951194 -192.19152027 122.74589318 -203.78027344 129.42138672 C-209.20909938 132.54930146 -214.63572007 135.68103731 -220.0625 138.8125 C-226.58483275 142.57613919 -233.10763762 146.33894622 -239.6328125 150.09765625 C-250.12482131 156.1430518 -260.60728712 162.20365248 -271.0625 168.3125 C-286.52550835 177.34653553 -302.02684558 186.31487768 -317.59130859 195.1730957 C-320.97372623 197.09973818 -324.35187092 199.03372648 -327.72753906 200.97216797 C-329.26736892 201.85607281 -330.80836125 202.73795606 -332.35058594 203.61767578 C-334.44830436 204.81803172 -336.53769375 206.0316515 -338.625 207.25 C-339.22658936 207.59144043 -339.82817871 207.93288086 -340.44799805 208.28466797 C-345.18265137 211.08076098 -348.30777488 214.04832463 -350.0625 219.3125 C-350.14516486 221.23156917 -350.16990663 223.15339474 -350.16015625 225.07421875 C-350.15693359 226.19248047 -350.15371094 227.31074219 -350.15039062 228.46289062 C-350.14201172 229.63013672 -350.13363281 230.79738281 -350.125 232 C-350.11823242 233.76827148 -350.11823242 233.76827148 -350.11132812 235.57226562 C-350.09953273 238.48572789 -350.0830727 241.39908863 -350.0625 244.3125 C-340.86536174 244.56849058 -331.66946704 244.76337066 -322.46953106 244.88243389 C-318.19641628 244.93961004 -313.92575521 245.01701265 -309.65405273 245.14233398 C-305.52354559 245.26274079 -301.39538196 245.32780157 -297.26325417 245.35614967 C-295.69500662 245.37632184 -294.1268734 245.41571786 -292.55963707 245.47553062 C-283.05213864 245.91860752 -283.05213864 245.91860752 -274.69448853 241.92666626 C-271.86430275 239.28441124 -269.44865783 236.36046264 -267.0625 233.3125 C-265.92313057 232.015128 -264.7789631 230.7219088 -263.625 229.4375 C-263.08746094 228.8084375 -262.54992187 228.179375 -261.99609375 227.53125 C-259.4517179 224.61164296 -256.82105183 221.77659334 -254.1875 218.9375 C-249.77421119 214.17890711 -245.40914016 209.38270781 -241.09765625 204.53125 C-228.03923002 190.29480835 -206.58853401 185.42124696 -188.90795898 178.7746582 C-185.43493057 177.4667148 -181.96541169 176.14977881 -178.49609375 174.83203125 C-176.90697426 174.23972466 -176.90697426 174.23972466 -175.28575134 173.63545227 C-168.32911572 170.98857187 -162.74319552 168.26309715 -157.44140625 162.921875 C-156.81967529 162.29885498 -156.19794434 161.67583496 -155.55737305 161.03393555 C-154.91968994 160.38336182 -154.28200684 159.73278809 -153.625 159.0625 C-152.95831299 158.38936768 -152.29162598 157.71623535 -151.60473633 157.02270508 C-147.83636945 153.1950886 -144.19530796 149.30536496 -140.73046875 145.19921875 C-137.80978714 141.89549693 -134.61703323 138.8586566 -131.4765625 135.765625 C-128.82141595 133.06751491 -126.38870028 130.25018654 -124.0234375 127.296875 C-117.87453367 121.0744783 -110.1913184 116.89424317 -102.66571045 112.56622314 C-99.44494255 110.71319168 -96.2342253 108.84291162 -93.0234375 106.97265625 C-92.03357346 106.39653595 -92.03357346 106.39653595 -91.02371216 105.80877686 C-84.10761074 101.77346154 -77.26973759 97.61270382 -70.4375 93.4375 C-59.73540938 86.90204831 -48.95578641 80.52381972 -38.0625 74.3125 C-38.68194885 70.87176531 -39.98764165 68.75309348 -42.08203125 65.9765625 C-42.69240234 65.15929687 -43.30277344 64.34203125 -43.93164062 63.5 C-44.57294922 62.654375 -45.21425781 61.80875 -45.875 60.9375 C-47.13274099 59.26394495 -48.3892806 57.58948624 -49.64453125 55.9140625 C-50.2370166 55.12547852 -50.82950195 54.33689453 -51.43994141 53.52441406 C-52.83804819 51.61847854 -54.16181058 49.69237096 -55.44921875 47.7109375 C-55.98160156 46.91945312 -56.51398438 46.12796875 -57.0625 45.3125 C-58.98594732 45.3125 -60.72265813 46.74519668 -62.34765625 47.6640625 Z M-55.0625 224.3125 C-55.0625 269.1925 -55.0625 314.0725 -55.0625 360.3125 C-7.2125 360.3125 40.6375 360.3125 89.9375 360.3125 C89.9375 352.0625 89.9375 343.8125 89.9375 335.3125 C85.23536255 335.29848145 85.23536255 335.29848145 80.43823242 335.28417969 C70.09643067 335.25045595 59.75482944 335.19493292 49.41318798 335.12859726 C43.14125183 335.08903963 36.86945783 335.0568918 30.59741211 335.04150391 C24.54777354 335.02639194 18.49852556 334.99204365 12.44906044 334.94419098 C10.13776349 334.92932072 7.82641078 334.92145577 5.51506615 334.92061615 C2.28460107 334.91826174 -0.94477108 334.89130468 -4.17504883 334.85839844 C-5.13673981 334.8634288 -6.09843079 334.86845917 -7.08926392 334.87364197 C-13.45013393 334.77298457 -13.45013393 334.77298457 -16.1552124 332.73883057 C-17.38226345 329.45736671 -17.48910082 326.40137337 -17.46655273 322.9453125 C-17.47341599 322.2098822 -17.48027924 321.4744519 -17.48735046 320.71673584 C-17.50562512 318.29012652 -17.50178064 315.86416324 -17.49609375 313.4375 C-17.50065488 311.74885854 -17.50596025 310.06021893 -17.51197815 308.37158203 C-17.52091026 304.83423313 -17.51848463 301.29710999 -17.50854492 297.75976562 C-17.49704832 293.22664542 -17.51727631 288.69430337 -17.54646206 284.1612854 C-17.56480634 280.67483573 -17.5645353 277.18857322 -17.55882454 273.7020874 C-17.55867114 272.03073026 -17.5647307 270.35936058 -17.57711601 268.68804932 C-17.5919934 266.3514315 -17.58137508 264.01626001 -17.56420898 261.6796875 C-17.57387695 260.98969666 -17.58354492 260.29970581 -17.59350586 259.58880615 C-17.54465065 256.41334241 -17.21734914 254.54299296 -15.43244934 251.88616943 C-12.33955275 249.83245599 -10.34456765 249.79530673 -6.64160156 249.76660156 C-5.34055481 249.74688293 -4.03950806 249.72716431 -2.69903564 249.70684814 C-1.28373253 249.7051851 0.13157115 249.70395417 1.546875 249.703125 C2.99849289 249.68814128 4.45009374 249.67141371 5.90167236 249.65301514 C9.71568591 249.60935002 13.52946951 249.58934471 17.34368896 249.57427979 C21.23837883 249.55470542 25.13282047 249.51273588 29.02734375 249.47265625 C36.66399576 249.39736345 44.30054354 249.34706673 51.9375 249.3125 C47.88500452 245.22421625 43.71972954 241.54338111 39.2003479 237.98017883 C37.01053637 236.22886293 34.95111109 234.40353301 32.92318726 232.46794128 C23.54579475 223.84542876 16.15802929 222.78682746 3.7265625 223.23828125 C2.21187826 223.25450747 0.69713169 223.26569667 -0.81762695 223.27185059 C-6.35854135 223.32891127 -11.89812477 223.48248554 -17.4375 223.625 C-36.061875 223.9653125 -36.061875 223.9653125 -55.0625 224.3125 Z M-322.0625 261.3125 C-322.0625 272.2025 -322.0625 283.0925 -322.0625 294.3125 C-305.5625 294.3125 -289.0625 294.3125 -272.0625 294.3125 C-274.3725 290.6825 -276.6825 287.0525 -279.0625 283.3125 C-280.09018864 281.36795332 -281.0934713 279.40968153 -282.04296875 277.42578125 C-285.28650156 271.33961894 -288.42427244 265.47351194 -294.0625 261.3125 C-303.42326087 258.5989461 -312.4482518 260.30047387 -322.0625 261.3125 Z M-1.0625 266.3125 C-1.0625 283.8025 -1.0625 301.2925 -1.0625 319.3125 C28.9675 319.3125 58.9975 319.3125 89.9375 319.3125 C89.9375 306.4425 89.9375 293.5725 89.9375 280.3125 C84.9875 275.8575 84.9875 275.8575 79.9375 271.3125 C78.92421631 270.3119458 77.91093262 269.3113916 76.86694336 268.28051758 C71.15525313 264.41694958 62.67997072 265.71418996 56.06640625 265.82421875 C54.41732356 265.83355422 52.76822693 265.84066687 51.11912537 265.84565735 C46.79677465 265.86466968 42.47527552 265.91371938 38.15325928 265.96917725 C32.95791469 266.02953125 27.76228399 266.05231354 22.56668854 266.08144379 C14.68970166 266.12978931 6.81458007 266.22564173 -1.0625 266.3125 Z M-346.0625 311.3125 C-346.0625 317.5825 -346.0625 323.8525 -346.0625 330.3125 C-311.4125 330.3125 -276.7625 330.3125 -241.0625 330.3125 C-241.0625 324.0425 -241.0625 317.7725 -241.0625 311.3125 C-275.7125 311.3125 -310.3625 311.3125 -346.0625 311.3125 Z M-175.0625 327.3125 C-180.46348019 335.34230834 -180.46348019 335.34230834 -178.0625 360.3125 C-143.0825 360.3125 -108.1025 360.3125 -72.0625 360.3125 C-72.0625 348.1025 -72.0625 335.8925 -72.0625 323.3125 C-78.6625 323.3125 -85.2625 323.3125 -92.0625 323.3125 C-92.09988281 324.79363281 -92.13726562 326.27476562 -92.17578125 327.80078125 C-92.24143354 329.74221314 -92.30788113 331.68361826 -92.375 333.625 C-92.39755859 334.60146484 -92.42011719 335.57792969 -92.44335938 336.58398438 C-92.4965332 337.99067383 -92.4965332 337.99067383 -92.55078125 339.42578125 C-92.57696533 340.28985596 -92.60314941 341.15393066 -92.63012695 342.04418945 C-93.15161527 344.78001551 -93.84161255 345.66898529 -96.0625 347.3125 C-99.54626041 348.13593428 -102.01333658 348.67142433 -105.4375 347.5 C-107.0625 346.3125 -107.0625 346.3125 -108.0625 344.3125 C-108.21425549 342.71987934 -108.31150325 341.12185144 -108.37890625 339.5234375 C-108.42080078 338.58242188 -108.46269531 337.64140625 -108.50585938 336.671875 C-108.54517578 335.68703125 -108.58449219 334.7021875 -108.625 333.6875 C-108.66818359 332.69492187 -108.71136719 331.70234375 -108.75585938 330.6796875 C-108.86211069 328.22410162 -108.96414964 325.76841297 -109.0625 323.3125 C-116.7817796 323.21963744 -124.50100095 323.14865286 -132.22071266 323.10525131 C-135.80570901 323.08441577 -139.39032194 323.05617349 -142.97509766 323.01074219 C-146.4375419 322.96713808 -149.89961841 322.94333257 -153.36231613 322.93299103 C-155.31992482 322.92205179 -157.27738648 322.89084872 -159.23477173 322.85931396 C-168.01072874 322.74538327 -168.01072874 322.74538327 -175.0625 327.3125 Z M-312.0625 346.3125 C-312.0625 350.9325 -312.0625 355.5525 -312.0625 360.3125 C-299.5225 360.3125 -286.9825 360.3125 -274.0625 360.3125 C-274.0625 355.6925 -274.0625 351.0725 -274.0625 346.3125 C-286.6025 346.3125 -299.1425 346.3125 -312.0625 346.3125 Z M-390.0625 376.3125 C-392.74247873 405.29925913 -392.74247873 405.29925913 -387.0625 432.3125 C-384.21277122 434.35868621 -381.840781 434.55853451 -378.38574219 434.53955078 C-377.00476349 434.53932419 -377.00476349 434.53932419 -375.59588623 434.53909302 C-374.61033752 434.52877045 -373.62478882 434.51844788 -372.609375 434.5078125 C-371.59401672 434.5049826 -370.57865845 434.50215271 -369.53253174 434.49923706 C-366.29240084 434.48805001 -363.05254724 434.46294791 -359.8125 434.4375 C-357.61458733 434.4274683 -355.41667032 434.41834278 -353.21875 434.41015625 C-347.83323886 434.38811551 -342.44788924 434.35465251 -337.0625 434.3125 C-336.73419189 433.2205835 -336.40588379 432.12866699 -336.06762695 431.00366211 C-335.62478624 429.55313882 -335.18165563 428.10270401 -334.73828125 426.65234375 C-334.41591492 425.5759967 -334.41591492 425.5759967 -334.08703613 424.47790527 C-330.05876895 411.37385844 -321.84304761 400.93333631 -310.0703125 393.8828125 C-295.25146571 386.14621976 -278.21799732 383.43977856 -261.96484375 388.2109375 C-246.55878586 394.05818962 -235.3575949 403.50931473 -228.0625 418.3125 C-226.4125 423.5925 -224.7625 428.8725 -223.0625 434.3125 C-209.2025 434.3125 -195.3425 434.3125 -181.0625 434.3125 C-180.4025 430.0225 -179.7425 425.7325 -179.0625 421.3125 C-176.46758975 418.71758975 -174.70004653 419.07658839 -171.16560364 419.06365967 C-170.34057846 419.07085022 -169.51555328 419.07804077 -168.66552734 419.08544922 C-167.36298759 419.08501114 -167.36298759 419.08501114 -166.03413391 419.08456421 C-163.15546782 419.08596083 -160.27705854 419.10153758 -157.3984375 419.1171875 C-155.4058954 419.12091645 -153.41335147 419.12376398 -151.42080688 419.12576294 C-146.16987061 419.13340868 -140.91904452 419.15306523 -135.66815186 419.1751709 C-130.31263724 419.19560909 -124.95710486 419.20476031 -119.6015625 419.21484375 C-109.08849319 419.23631025 -98.57550575 419.27045751 -88.0625 419.3125 C-85.10952106 425.21845788 -85.0625 426.88448562 -85.0625 434.3125 C-70.8725 434.3125 -56.6825 434.3125 -42.0625 434.3125 C-40.4125 429.0325 -38.7625 423.7525 -37.0625 418.3125 C-29.46604147 403.40624176 -18.95140564 393.91326491 -3.0625 388.375 C11.96320771 383.8006414 28.79974336 385.45152096 42.6875 392.5 C59.64905669 402.32628645 66.95527682 415.99077607 71.9375 434.3125 C77.8775 434.3125 83.8175 434.3125 89.9375 434.3125 C89.9375 415.1725 89.9375 396.0325 89.9375 376.3125 C-68.4625 376.3125 -226.8625 376.3125 -390.0625 376.3125 Z M-311.56640625 417.05859375 C-319.22282012 426.59553033 -321.94090645 437.22627793 -321.0625 449.3125 C-319.76569421 456.6867092 -316.65460063 462.46303848 -312.0625 468.3125 C-311.58296875 468.92996094 -311.1034375 469.54742187 -310.609375 470.18359375 C-304.33967899 477.29241574 -293.50182744 482.80631576 -284.03125 483.55078125 C-271.24252234 483.82441394 -261.48589273 481.17274177 -252.0625 472.3125 C-243.30039663 463.83046386 -239.37379688 453.45307819 -239.0625 441.3125 C-240.20398193 429.17128312 -244.89745036 419.52484454 -253.7109375 411.13671875 C-272.17693713 396.81176555 -296.44300801 399.49973917 -311.56640625 417.05859375 Z M-16.3125 416.6875 C-23.22670986 424.79474999 -26.67512739 434.06732083 -26.375 444.796875 C-24.78223364 457.61864421 -19.11144239 467.35949157 -9.359375 475.58984375 C-6.10206459 478.03282656 -2.84120679 479.8167619 0.9375 481.3125 C1.96875 481.725 3 482.1375 4.0625 482.5625 C15.31114438 484.73965698 26.14712031 483.77771763 36.1796875 478.02734375 C38.25609339 476.57709139 40.08411699 475.03819692 41.9375 473.3125 C42.62714844 472.67570312 43.31679688 472.03890625 44.02734375 471.3828125 C52.22372396 463.04906278 55.54567821 452.86540089 56.00390625 441.3125 C55.83643105 433.74656165 53.90605664 426.20593948 48.9375 420.3125 C42.97693973 415.75327323 35.89989368 412.63870439 29.18286133 409.38110352 C27.36847265 408.49681874 25.56443391 407.59337653 23.75976562 406.68945312 C22.60025391 406.12548828 21.44074219 405.56152344 20.24609375 404.98046875 C19.20251709 404.46766357 18.15894043 403.9548584 17.08374023 403.42651367 C4.15754348 398.84963497 -7.89671011 407.6827598 -16.3125 416.6875 Z M-164.0625 434.3125 C-164.0625 439.9225 -164.0625 445.5325 -164.0625 451.3125 C-143.2725 451.3125 -122.4825 451.3125 -101.0625 451.3125 C-101.0625 445.7025 -101.0625 440.0925 -101.0625 434.3125 C-121.8525 434.3125 -142.6425 434.3125 -164.0625 434.3125 Z " fill="#E92EA5" transform="translate(406.0625,6.6875)"/>
<path d="M0 0 C3.41639845 1.9739191 4.72268412 3.18538459 6 6.9375 C6 10.70706762 5.22201084 11.9775132 3 15 C0.9531269 16.54039937 -0.99278353 17.83306043 -3.1875 19.125 C-3.86329102 19.53548584 -4.53908203 19.94597168 -5.23535156 20.36889648 C-7.81482315 21.92762489 -10.40679015 23.4642324 -13 25 C-14.7601889 26.0469032 -16.52037337 27.09381385 -18.2804718 28.14086914 C-23.00468423 30.95046184 -27.73115262 33.7562107 -32.46166992 36.55517578 C-41.34365664 41.81243724 -50.18795327 47.12641416 -59 52.5 C-70.52152102 59.52436847 -82.10328624 66.44276226 -93.72851562 73.29418945 C-99.44969385 76.67045885 -105.14978727 80.05689675 -110.7421875 83.64453125 C-111.56509277 84.16869629 -112.38799805 84.69286133 -113.23583984 85.23291016 C-114.67611797 86.15820421 -116.10736505 87.0978264 -117.52587891 88.05615234 C-122.33157957 91.13724166 -125.46859166 91.54493747 -131 91 C-133.5 89.5 -133.5 89.5 -135 87 C-135.77403846 81.58173077 -135.77403846 81.58173077 -135 79 C-131.7057853 75.35468358 -128.40508634 72.82231358 -124.15234375 70.390625 C-123.59229141 70.06684875 -123.03223907 69.74307251 -122.45521545 69.40948486 C-121.24948658 68.71326151 -120.04177423 68.0204638 -118.83227539 67.33081055 C-115.5543991 65.46105686 -112.29180826 63.56491499 -109.02734375 61.671875 C-108.02047012 61.08925903 -108.02047012 61.08925903 -106.99325562 60.49487305 C-100.2681761 56.59515033 -93.63066733 52.55745115 -87 48.5 C-77.55832376 42.73070547 -68.05923254 37.07227322 -58.5 31.5 C-46.27529148 24.37359126 -34.16062085 17.07799415 -22.08203125 9.70703125 C-20.54156128 8.76923828 -20.54156128 8.76923828 -18.9699707 7.8125 C-17.00889889 6.61570615 -15.05160838 5.41269143 -13.09838867 4.203125 C-12.20998291 3.65785156 -11.32157715 3.11257812 -10.40625 2.55078125 C-9.24512695 1.83208862 -9.24512695 1.83208862 -8.06054688 1.09887695 C-5.14275512 -0.45716341 -3.22067445 -0.74899406 0 0 Z " fill="#BD2BE9" transform="translate(282,105)"/>
<path d="M0 0 C7.33881017 5.39618395 10.91228902 12.18617831 12.33984375 21.12890625 C12.73532145 28.95936467 10.28149793 35.92977458 5.3125 41.875 C-0.45756322 47.90056417 -7.17431434 51.10470922 -15.5625 51.3125 C-23.56380876 51.21586584 -29.94836733 49.24880781 -35.875 43.75 C-41.67995175 37.38372036 -44.38417707 30.1324465 -44.28515625 21.57421875 C-43.54803138 14.9198997 -40.97673135 7.58383151 -36 3 C-24.71504763 -4.68056123 -12.42842274 -7.38591452 0 0 Z M-26 18 C-27.05591005 20.7498834 -27.35489702 23.07496163 -27 26 C-25.03190926 29.79560358 -23.5566917 31.6288722 -20 34 C-15.40617081 34.44456411 -13.11743887 34.65588803 -9.125 32.3125 C-6.00050734 28.91231681 -4.93161839 26.64115861 -5.125 22 C-6.13469167 18.5382 -7.53947415 16.60964863 -10 14 C-16.307972 10.846014 -21.6832191 12.94620773 -26 18 Z " fill="#FF4E3B" transform="translate(142,426)"/>
<path d="M0 0 C6.00555593 4.55315661 9.9599921 10.22313614 11.56640625 17.6015625 C12.64783427 25.68381403 11.0888024 32.12079553 7.25 39.25 C1.71502368 46.01497106 -4.03055437 50.33944659 -12.859375 51.31640625 C-21.99765442 51.67590709 -28.23234728 49.44802346 -35.3125 43.75 C-41.32478239 38.1688773 -43.6190839 31.85668027 -44.25 23.8125 C-43.65438182 14.72932278 -40.91200186 8.70206965 -34.515625 2.140625 C-24.72036521 -6.19447184 -10.92593962 -6.41922623 0 0 Z M-25 17 C-26.69932147 19.93519164 -27.01645196 21.60515287 -26.875 25 C-25.86530833 28.4618 -24.46052585 30.39035137 -22 33 C-18.79386153 34.60306924 -15.47860003 34.48740461 -12 34 C-8.60109858 31.93110348 -6.11062989 29.88720463 -5 26 C-5.19256912 20.70434916 -6.30953411 17.80229819 -10 14 C-15.63427304 11.18286348 -20.92145853 12.56158722 -25 17 Z " fill="#FF4E3B" transform="translate(437,426)"/>
</svg>
